<mxfile host="app.diagrams.net" modified="2024-03-22T15:40:30.206Z" agent="Mozilla/5.0 (Windows NT 10.0; Win64; x64) AppleWebKit/537.36 (KHTML, like Gecko) Chrome/122.0.0.0 Safari/537.36" etag="PLMG9Ep7NWQRoTkMq1nR" version="24.0.7" type="device">
  <diagram id="OXiOiQAXkzTa8zTB19QB" name="Pagina-1">
    <mxGraphModel dx="2800" dy="1085" grid="1" gridSize="10" guides="1" tooltips="1" connect="1" arrows="1" fold="1" page="1" pageScale="1" pageWidth="827" pageHeight="1169" math="0" shadow="0">
      <root>
        <mxCell id="0" />
        <mxCell id="1" parent="0" />
        <mxCell id="ef9lrzrsXZtWb0JxOFgJ-84" value="Prefixes" style="graphMlID=n0;shape=swimlane;startSize=20;fillColor=#b7b69e;strokeColor=#000000;strokeWidth=1.0;align=right;spacingRight=10;fontStyle=1" parent="1" vertex="1">
          <mxGeometry x="414" y="840" width="969.9964524373497" height="195" as="geometry">
            <mxRectangle x="80" y="720" width="90" height="30" as="alternateBounds" />
          </mxGeometry>
        </mxCell>
        <mxCell id="ef9lrzrsXZtWb0JxOFgJ-85" value="&lt;div style=&quot;&quot;&gt;&lt;b style=&quot;background-color: initial;&quot;&gt;dbr:&lt;/b&gt;&lt;/div&gt;&lt;b&gt;&lt;div style=&quot;&quot;&gt;&lt;b style=&quot;background-color: initial;&quot;&gt;action:&lt;/b&gt;&lt;br&gt;&lt;/div&gt;&lt;div style=&quot;&quot;&gt;&lt;b style=&quot;background-color: initial;&quot;&gt;fao:&lt;/b&gt;&lt;/div&gt;&lt;div style=&quot;&quot;&gt;&lt;b style=&quot;background-color: initial;&quot;&gt;fs:&lt;/b&gt;&lt;/div&gt;&lt;div style=&quot;&quot;&gt;&lt;b style=&quot;background-color: initial;&quot;&gt;news:&lt;/b&gt;&lt;/div&gt;&lt;div style=&quot;&quot;&gt;&lt;b style=&quot;background-color: initial;&quot;&gt;cbo:&lt;/b&gt;&lt;/div&gt;&lt;div style=&quot;&quot;&gt;&lt;b style=&quot;background-color: initial;&quot;&gt;parameter:&lt;/b&gt;&lt;/div&gt;&lt;div style=&quot;&quot;&gt;&lt;b style=&quot;background-color: initial;&quot;&gt;exob:&lt;/b&gt;&lt;/div&gt;&lt;div style=&quot;&quot;&gt;&lt;b style=&quot;background-color: initial;&quot;&gt;activitypattern:&lt;/b&gt;&lt;/div&gt;&lt;div style=&quot;&quot;&gt;&lt;b style=&quot;background-color: initial;&quot;&gt;participation:&lt;/b&gt;&lt;/div&gt;&lt;div style=&quot;&quot;&gt;&lt;br&gt;&lt;/div&gt;&lt;/b&gt;" style="text;html=1;align=left;verticalAlign=middle;resizable=0;points=[];autosize=1;fontFamily=Courier New;" parent="ef9lrzrsXZtWb0JxOFgJ-84" vertex="1">
          <mxGeometry x="19.99645243734973" y="24.99953721049043" width="140" height="170" as="geometry" />
        </mxCell>
        <mxCell id="ef9lrzrsXZtWb0JxOFgJ-86" value="&lt;div style=&quot;border-color: var(--border-color);&quot;&gt;https://dbpedia.org/resource/&lt;/div&gt;&lt;div style=&quot;border-color: var(--border-color);&quot;&gt;&lt;span style=&quot;background-color: initial;&quot;&gt;http://www.ontology.se/odp/content/owl/Action.owl#&lt;/span&gt;&lt;br&gt;&lt;/div&gt;&lt;div style=&quot;border-color: var(--border-color);&quot;&gt;http://www.fao.org/aims/aos/aos.owl#&amp;nbsp;&lt;/div&gt;&lt;div style=&quot;border-color: var(--border-color);&quot;&gt;https://w3id.org/framester/data/framestercore/&lt;b style=&quot;background-color: initial; border-color: var(--border-color); text-align: center;&quot;&gt;&lt;span style=&quot;border-color: var(--border-color);&quot;&gt;&lt;span style=&quot;border-color: var(--border-color);&quot;&gt;&amp;nbsp; &amp;nbsp;&lt;/span&gt;&lt;/span&gt;&amp;nbsp;&lt;/b&gt;&lt;/div&gt;&lt;span style=&quot;text-align: center;&quot;&gt;http://semantic.cs.put.poznan.pl/ontologies/newsreportingevent.owl#&amp;nbsp;&lt;/span&gt;&lt;b style=&quot;text-align: center; background-color: initial; border-color: var(--border-color);&quot;&gt;&lt;span style=&quot;border-color: var(--border-color);&quot;&gt;&lt;span style=&quot;border-color: var(--border-color);&quot;&gt;&amp;nbsp;&lt;/span&gt;&lt;/span&gt;&lt;/b&gt;&lt;span style=&quot;text-align: center;&quot;&gt;&lt;br&gt;&lt;/span&gt;&lt;span style=&quot;text-align: center; background-color: initial; border-color: var(--border-color);&quot;&gt;&lt;span style=&quot;border-color: var(--border-color);&quot;&gt;&lt;span style=&quot;border-color: var(--border-color);&quot;&gt;https://github.com/corrado877/CognitiveBiasOntologies/blob/main/Illusion_of_validity/Illusion_of_validity.owl#&lt;br&gt;&lt;/span&gt;&lt;/span&gt;&lt;/span&gt;&lt;div&gt;&lt;span style=&quot;text-align: center; background-color: initial; border-color: var(--border-color);&quot;&gt;&lt;span style=&quot;border-color: var(--border-color);&quot;&gt;&lt;span style=&quot;border-color: var(--border-color);&quot;&gt;http://ontologydesignpatterns.org/cp/owl/parameter.owl#&amp;nbsp; &amp;nbsp;&lt;/span&gt;&lt;/span&gt;&lt;span style=&quot;border-color: var(--border-color);&quot;&gt;&lt;span style=&quot;border-color: var(--border-color);&quot;&gt;&amp;nbsp; &amp;nbsp;&amp;nbsp;&lt;/span&gt;&lt;/span&gt;&lt;/span&gt;&lt;span style=&quot;text-align: center;&quot;&gt;&lt;br&gt;&lt;/span&gt;&lt;span style=&quot;text-align: center;&quot;&gt;http://modellingdh.github.io/ont/odp/term/&lt;/span&gt;&lt;b&gt;&amp;nbsp;&lt;/b&gt;&lt;br&gt;http://descartes-core.org/ontologies/activities/1.0/ActivityPattern.owl#&lt;br&gt;http://ontologydesignpatterns.org/cp/owl/participation.owl#&lt;span style=&quot;&quot;&gt;&lt;/span&gt;&lt;/div&gt;" style="text;html=1;align=left;verticalAlign=middle;resizable=0;points=[];autosize=1;fontFamily=Courier New;" parent="ef9lrzrsXZtWb0JxOFgJ-84" vertex="1">
          <mxGeometry x="149.99645243734972" y="24.99953721049055" width="820" height="160" as="geometry" />
        </mxCell>
        <mxCell id="pZXh48UmwXZww2GO9a-6-1" value="fs:People" style="graphMlID=n4;shape=rect;rounded=1;arcsize=30;fillColor=#ffff00;strokeColor=#000000;strokeWidth=1.0" parent="1" vertex="1">
          <mxGeometry x="800" y="200" width="81.96822102864604" height="44" as="geometry" />
        </mxCell>
        <mxCell id="pZXh48UmwXZww2GO9a-6-2" value="fs:Predicting" style="graphMlID=n4;shape=rect;rounded=1;arcsize=30;fillColor=#ffff00;strokeColor=#000000;strokeWidth=1.0" parent="1" vertex="1">
          <mxGeometry x="800" y="360" width="81.96822102864604" height="44" as="geometry" />
        </mxCell>
        <mxCell id="pZXh48UmwXZww2GO9a-6-3" value="" style="graphMlID=e0;rounded=0;endArrow=block;strokeColor=#000080;strokeWidth=1.0;startArrow=oval;startFill=1;endFill=1;exitX=0.5;exitY=1;exitDx=0;exitDy=0;entryX=0.5;entryY=0;entryDx=0;entryDy=0;" parent="1" source="pZXh48UmwXZww2GO9a-6-1" target="pZXh48UmwXZww2GO9a-6-2" edge="1">
          <mxGeometry relative="1" as="geometry">
            <mxPoint x="414" y="300.08183758898736" as="sourcePoint" />
            <mxPoint x="565" y="300" as="targetPoint" />
          </mxGeometry>
        </mxCell>
        <mxCell id="pZXh48UmwXZww2GO9a-6-4" value="&lt;span style=&quot;color: rgb(0, 0, 128); font-family: dialog; background-color: rgb(248, 249, 250);&quot;&gt;&lt;font style=&quot;font-size: 14px;&quot;&gt;exob:isEngagedIn&lt;/font&gt;&lt;/span&gt;" style="text;html=1;align=center;verticalAlign=middle;resizable=0;points=[];labelBackgroundColor=#ffffff;" parent="pZXh48UmwXZww2GO9a-6-3" vertex="1" connectable="0">
          <mxGeometry x="-0.0174" y="2" relative="1" as="geometry">
            <mxPoint as="offset" />
          </mxGeometry>
        </mxCell>
        <mxCell id="pZXh48UmwXZww2GO9a-6-5" value="" style="graphMlID=e0;rounded=0;endArrow=block;strokeColor=#000080;strokeWidth=1.0;startArrow=oval;startFill=1;endFill=1;exitX=0.5;exitY=1;exitDx=0;exitDy=0;entryX=0.5;entryY=0;entryDx=0;entryDy=0;" parent="1" source="pZXh48UmwXZww2GO9a-6-2" target="pZXh48UmwXZww2GO9a-6-10" edge="1">
          <mxGeometry relative="1" as="geometry">
            <mxPoint x="338" y="530.0818375889874" as="sourcePoint" />
            <mxPoint x="411" y="520" as="targetPoint" />
          </mxGeometry>
        </mxCell>
        <mxCell id="pZXh48UmwXZww2GO9a-6-6" value="&lt;span style=&quot;color: rgb(0, 0, 128); font-family: dialog; background-color: rgb(248, 249, 250);&quot;&gt;&lt;font style=&quot;font-size: 14px;&quot;&gt;activitypattern:Produces&lt;/font&gt;&lt;/span&gt;" style="text;html=1;align=center;verticalAlign=middle;resizable=0;points=[];labelBackgroundColor=#ffffff;" parent="pZXh48UmwXZww2GO9a-6-5" vertex="1" connectable="0">
          <mxGeometry x="-0.0174" y="2" relative="1" as="geometry">
            <mxPoint as="offset" />
          </mxGeometry>
        </mxCell>
        <mxCell id="pZXh48UmwXZww2GO9a-6-7" value="dbr:Knowledge" style="graphMlID=n4;shape=rect;rounded=1;arcsize=30;fillColor=#ffff00;strokeColor=#000000;strokeWidth=1.0" parent="1" vertex="1">
          <mxGeometry x="478.0317789713539" y="200" width="81.96822102864604" height="44" as="geometry" />
        </mxCell>
        <mxCell id="pZXh48UmwXZww2GO9a-6-8" value="" style="graphMlID=e0;rounded=0;endArrow=block;strokeColor=#000080;strokeWidth=1.0;startArrow=oval;startFill=1;endFill=1;exitX=0;exitY=0.5;exitDx=0;exitDy=0;entryX=1;entryY=0.5;entryDx=0;entryDy=0;" parent="1" source="pZXh48UmwXZww2GO9a-6-1" target="pZXh48UmwXZww2GO9a-6-7" edge="1">
          <mxGeometry relative="1" as="geometry">
            <mxPoint x="340" y="230.08183758898736" as="sourcePoint" />
            <mxPoint x="491" y="230" as="targetPoint" />
          </mxGeometry>
        </mxCell>
        <mxCell id="pZXh48UmwXZww2GO9a-6-9" value="&lt;span style=&quot;color: rgb(0, 0, 128); font-family: dialog; background-color: rgb(248, 249, 250);&quot;&gt;&lt;font style=&quot;font-size: 14px;&quot;&gt;news:owns&lt;/font&gt;&lt;/span&gt;" style="text;html=1;align=center;verticalAlign=middle;resizable=0;points=[];labelBackgroundColor=#ffffff;" parent="pZXh48UmwXZww2GO9a-6-8" vertex="1" connectable="0">
          <mxGeometry x="-0.0174" y="2" relative="1" as="geometry">
            <mxPoint x="-2" y="-4" as="offset" />
          </mxGeometry>
        </mxCell>
        <mxCell id="pZXh48UmwXZww2GO9a-6-10" value="fs:Expectation" style="graphMlID=n4;shape=rect;rounded=1;arcsize=30;fillColor=#ffff00;strokeColor=#000000;strokeWidth=1.0" parent="1" vertex="1">
          <mxGeometry x="800" y="520" width="81.96822102864604" height="44" as="geometry" />
        </mxCell>
        <mxCell id="pZXh48UmwXZww2GO9a-6-11" value="" style="graphMlID=e0;rounded=0;endArrow=block;strokeColor=#000080;strokeWidth=1.0;startArrow=oval;startFill=1;endFill=1;exitX=0.5;exitY=1;exitDx=0;exitDy=0;entryX=0.5;entryY=0;entryDx=0;entryDy=0;" parent="1" source="pZXh48UmwXZww2GO9a-6-7" target="pZXh48UmwXZww2GO9a-6-13" edge="1">
          <mxGeometry relative="1" as="geometry">
            <mxPoint x="100" y="381.58183758898736" as="sourcePoint" />
            <mxPoint x="160" y="320" as="targetPoint" />
          </mxGeometry>
        </mxCell>
        <mxCell id="pZXh48UmwXZww2GO9a-6-12" value="&lt;span style=&quot;color: rgb(0, 0, 128); font-family: dialog; background-color: rgb(248, 249, 250);&quot;&gt;&lt;font style=&quot;font-size: 14px;&quot;&gt;fao:affects&lt;/font&gt;&lt;/span&gt;" style="text;html=1;align=center;verticalAlign=middle;resizable=0;points=[];labelBackgroundColor=#ffffff;" parent="pZXh48UmwXZww2GO9a-6-11" vertex="1" connectable="0">
          <mxGeometry x="-0.0174" y="2" relative="1" as="geometry">
            <mxPoint x="-1" as="offset" />
          </mxGeometry>
        </mxCell>
        <mxCell id="pZXh48UmwXZww2GO9a-6-13" value="cbo:Perceived&#xa;Validity" style="graphMlID=n4;shape=rect;rounded=1;arcsize=30;fillColor=#ffff00;strokeColor=#000000;strokeWidth=1.0" parent="1" vertex="1">
          <mxGeometry x="478.03" y="360" width="81.96822102864604" height="44" as="geometry" />
        </mxCell>
        <mxCell id="pZXh48UmwXZww2GO9a-6-14" value="action:action" style="graphMlID=n4;shape=rect;rounded=1;arcsize=30;fillColor=#ffff00;strokeColor=#000000;strokeWidth=1.0" parent="1" vertex="1">
          <mxGeometry x="1119.998221028646" y="200" width="81.96822102864604" height="44" as="geometry" />
        </mxCell>
        <mxCell id="pZXh48UmwXZww2GO9a-6-15" value="activitypattern:&#xa;Outcome" style="graphMlID=n4;shape=rect;rounded=1;arcsize=30;fillColor=#ffff00;strokeColor=#000000;strokeWidth=1.0" parent="1" vertex="1">
          <mxGeometry x="1120" y="360" width="81.96822102864604" height="44" as="geometry" />
        </mxCell>
        <mxCell id="pZXh48UmwXZww2GO9a-6-16" value="fs:Identicality" style="graphMlID=n4;shape=rect;rounded=1;arcsize=30;fillColor=#ffff00;strokeColor=#000000;strokeWidth=1.0" parent="1" vertex="1">
          <mxGeometry x="1120" y="520" width="81.96822102864604" height="44" as="geometry" />
        </mxCell>
        <mxCell id="pZXh48UmwXZww2GO9a-6-17" value="" style="graphMlID=e0;rounded=0;endArrow=block;strokeColor=#000080;strokeWidth=1.0;startArrow=oval;startFill=1;endFill=1;entryX=0;entryY=0.5;entryDx=0;entryDy=0;exitX=1;exitY=0.5;exitDx=0;exitDy=0;" parent="1" target="pZXh48UmwXZww2GO9a-6-16" edge="1" source="pZXh48UmwXZww2GO9a-6-10">
          <mxGeometry relative="1" as="geometry">
            <mxPoint x="930" y="542" as="sourcePoint" />
            <mxPoint x="550" y="542" as="targetPoint" />
          </mxGeometry>
        </mxCell>
        <mxCell id="pZXh48UmwXZww2GO9a-6-18" value="&lt;span style=&quot;color: rgb(0, 0, 128); font-family: dialog; background-color: rgb(248, 249, 250);&quot;&gt;&lt;font style=&quot;font-size: 14px;&quot;&gt;cbo:hasAttribute&lt;/font&gt;&lt;/span&gt;" style="text;html=1;align=center;verticalAlign=middle;resizable=0;points=[];labelBackgroundColor=#ffffff;" parent="pZXh48UmwXZww2GO9a-6-17" vertex="1" connectable="0">
          <mxGeometry x="-0.0174" y="2" relative="1" as="geometry">
            <mxPoint as="offset" />
          </mxGeometry>
        </mxCell>
        <mxCell id="pZXh48UmwXZww2GO9a-6-19" value="" style="graphMlID=e0;rounded=0;endArrow=block;strokeColor=#000080;strokeWidth=1.0;startArrow=oval;startFill=1;endFill=1;entryX=0.5;entryY=0;entryDx=0;entryDy=0;exitX=0.5;exitY=1;exitDx=0;exitDy=0;" parent="1" source="pZXh48UmwXZww2GO9a-6-15" target="pZXh48UmwXZww2GO9a-6-16" edge="1">
          <mxGeometry relative="1" as="geometry">
            <mxPoint x="390" y="470.08183758898736" as="sourcePoint" />
            <mxPoint x="541" y="470" as="targetPoint" />
          </mxGeometry>
        </mxCell>
        <mxCell id="pZXh48UmwXZww2GO9a-6-20" value="&lt;span style=&quot;color: rgb(0, 0, 128); font-family: dialog; background-color: rgb(248, 249, 250);&quot;&gt;&lt;font style=&quot;font-size: 14px;&quot;&gt;cbo:hasAttribute&lt;/font&gt;&lt;/span&gt;" style="text;html=1;align=center;verticalAlign=middle;resizable=0;points=[];labelBackgroundColor=#ffffff;" parent="pZXh48UmwXZww2GO9a-6-19" vertex="1" connectable="0">
          <mxGeometry x="-0.0174" y="2" relative="1" as="geometry">
            <mxPoint as="offset" />
          </mxGeometry>
        </mxCell>
        <mxCell id="pZXh48UmwXZww2GO9a-6-21" value="xsd:boolean" style="graphMlID=n6;shape=parallelogram;fillColor=#ccffcc;strokeColor=#000000;strokeWidth=1.0" parent="1" vertex="1">
          <mxGeometry x="1079.9499999999998" y="650" width="162.07" height="43" as="geometry" />
        </mxCell>
        <mxCell id="pZXh48UmwXZww2GO9a-6-22" value="" style="graphMlID=e2;rounded=0;endArrow=block;strokeColor=#008000;strokeWidth=1.0;startArrow=oval;startFill=0;endFill=0;entryX=0.5;entryY=0;entryDx=0;entryDy=0;exitX=0.5;exitY=1;exitDx=0;exitDy=0;" parent="1" source="pZXh48UmwXZww2GO9a-6-16" target="pZXh48UmwXZww2GO9a-6-21" edge="1">
          <mxGeometry relative="1" as="geometry">
            <mxPoint x="320" y="640" as="sourcePoint" />
            <mxPoint x="596.8107910156248" y="640.1803426299535" as="targetPoint" />
          </mxGeometry>
        </mxCell>
        <mxCell id="pZXh48UmwXZww2GO9a-6-23" value="&lt;span style=&quot;color: rgb(0, 128, 0); font-family: dialog; background-color: rgb(248, 249, 250);&quot;&gt;&lt;font style=&quot;font-size: 14px;&quot;&gt;parameter:hasParameterDataValue&lt;/font&gt;&lt;/span&gt;" style="text;html=1;align=center;verticalAlign=middle;resizable=0;points=[];labelBackgroundColor=#ffffff;" parent="pZXh48UmwXZww2GO9a-6-22" vertex="1" connectable="0">
          <mxGeometry x="-0.0896" y="3" relative="1" as="geometry">
            <mxPoint x="4" y="2" as="offset" />
          </mxGeometry>
        </mxCell>
        <mxCell id="pZXh48UmwXZww2GO9a-6-24" value="" style="graphMlID=e0;rounded=0;endArrow=block;strokeColor=#000080;strokeWidth=1.0;startArrow=oval;startFill=1;endFill=1;exitX=1;exitY=0.5;exitDx=0;exitDy=0;entryX=0;entryY=0.5;entryDx=0;entryDy=0;" parent="1" source="pZXh48UmwXZww2GO9a-6-13" target="pZXh48UmwXZww2GO9a-6-2" edge="1">
          <mxGeometry relative="1" as="geometry">
            <mxPoint x="106.42000000000002" y="541.5818375889874" as="sourcePoint" />
            <mxPoint x="257.42" y="541.5" as="targetPoint" />
          </mxGeometry>
        </mxCell>
        <mxCell id="pZXh48UmwXZww2GO9a-6-25" value="&lt;span style=&quot;color: rgb(0, 0, 128); font-family: dialog; background-color: rgb(248, 249, 250);&quot;&gt;&lt;font style=&quot;font-size: 14px;&quot;&gt;participation:&lt;/font&gt;&lt;/span&gt;&lt;div&gt;&lt;span style=&quot;color: rgb(0, 0, 128); font-family: dialog; background-color: rgb(248, 249, 250);&quot;&gt;&lt;font style=&quot;font-size: 14px;&quot;&gt;isParticipantIn&lt;/font&gt;&lt;/span&gt;&lt;/div&gt;" style="text;html=1;align=center;verticalAlign=middle;resizable=0;points=[];labelBackgroundColor=#ffffff;" parent="pZXh48UmwXZww2GO9a-6-24" vertex="1" connectable="0">
          <mxGeometry x="-0.0174" y="2" relative="1" as="geometry">
            <mxPoint as="offset" />
          </mxGeometry>
        </mxCell>
        <mxCell id="pZXh48UmwXZww2GO9a-6-26" value="" style="graphMlID=e0;rounded=0;endArrow=block;strokeColor=#000080;strokeWidth=1.0;startArrow=oval;startFill=1;endFill=1;exitX=1;exitY=0.5;exitDx=0;exitDy=0;entryX=0;entryY=0.5;entryDx=0;entryDy=0;" parent="1" source="pZXh48UmwXZww2GO9a-6-1" target="pZXh48UmwXZww2GO9a-6-14" edge="1">
          <mxGeometry relative="1" as="geometry">
            <mxPoint x="460" y="300.08183758898736" as="sourcePoint" />
            <mxPoint x="611" y="300" as="targetPoint" />
          </mxGeometry>
        </mxCell>
        <mxCell id="pZXh48UmwXZww2GO9a-6-27" value="&lt;span style=&quot;color: rgb(0, 0, 128); font-family: dialog; background-color: rgb(248, 249, 250);&quot;&gt;&lt;font style=&quot;font-size: 14px;&quot;&gt;exob:isEngagedIn&lt;/font&gt;&lt;/span&gt;" style="text;html=1;align=center;verticalAlign=middle;resizable=0;points=[];labelBackgroundColor=#ffffff;" parent="pZXh48UmwXZww2GO9a-6-26" vertex="1" connectable="0">
          <mxGeometry x="-0.0174" y="2" relative="1" as="geometry">
            <mxPoint as="offset" />
          </mxGeometry>
        </mxCell>
        <mxCell id="pZXh48UmwXZww2GO9a-6-28" value="" style="graphMlID=e0;rounded=0;endArrow=block;strokeColor=#000080;strokeWidth=1.0;startArrow=oval;startFill=1;endFill=1;exitX=0.5;exitY=1;exitDx=0;exitDy=0;entryX=0.5;entryY=0;entryDx=0;entryDy=0;" parent="1" source="pZXh48UmwXZww2GO9a-6-14" target="pZXh48UmwXZww2GO9a-6-15" edge="1">
          <mxGeometry relative="1" as="geometry">
            <mxPoint x="460" y="400.08183758898736" as="sourcePoint" />
            <mxPoint x="611" y="400" as="targetPoint" />
          </mxGeometry>
        </mxCell>
        <mxCell id="pZXh48UmwXZww2GO9a-6-29" value="&lt;span style=&quot;color: rgb(0, 0, 128); font-family: dialog; background-color: rgb(248, 249, 250);&quot;&gt;&lt;font style=&quot;font-size: 14px;&quot;&gt;action:hasConsequence&lt;/font&gt;&lt;/span&gt;" style="text;html=1;align=center;verticalAlign=middle;resizable=0;points=[];labelBackgroundColor=#ffffff;" parent="pZXh48UmwXZww2GO9a-6-28" vertex="1" connectable="0">
          <mxGeometry x="-0.0174" y="2" relative="1" as="geometry">
            <mxPoint as="offset" />
          </mxGeometry>
        </mxCell>
      </root>
    </mxGraphModel>
  </diagram>
</mxfile>
